<svg xmlns="http://www.w3.org/2000/svg" xmlns:xlink="http://www.w3.org/1999/xlink" width="56.25" viewBox="0 0 56.25 56.25" height="56.25" version="1.0"><defs><clipPath id="d"><path d="M 0.105469 0.421875 L 41.789062 0.421875 L 41.789062 30 L 0.105469 30 Z M 0.105469 0.421875"/></clipPath><clipPath id="c"><path d="M0 0H42V31H0z"/></clipPath><clipPath id="g"><path d="M 0.105469 0.421875 L 41.789062 0.421875 L 41.789062 3.738281 L 0.105469 3.738281 Z M 0.105469 0.421875"/></clipPath><clipPath id="f"><path d="M0 0H42V4H0z"/></clipPath><clipPath id="h"><path d="M 3 0 L 52.996094 0 L 52.996094 20 L 3 20 Z M 3 0"/></clipPath><clipPath id="k"><path d="M 1 0.183594 L 48.867188 0.183594 L 48.867188 17.238281 L 1 17.238281 Z M 1 0.183594"/></clipPath><clipPath id="j"><path d="M0 0H49V18H0z"/></clipPath><clipPath id="n"><path d="M 0.605469 0.867188 L 9.84375 0.867188 L 9.84375 9.867188 L 0.605469 9.867188 Z M 0.605469 0.867188"/></clipPath><clipPath id="m"><path d="M0 0H10V10H0z"/></clipPath><clipPath id="q"><path d="M 0.789062 0.578125 L 8.605469 0.578125 L 8.605469 8.394531 L 0.789062 8.394531 Z M 0.789062 0.578125"/></clipPath><clipPath id="p"><path d="M0 0H9V9H0z"/></clipPath><clipPath id="t"><path d="M 1 0.710938 L 4 0.710938 L 4 2.367188 L 1 2.367188 Z M 1 0.710938"/></clipPath><clipPath id="s"><path d="M0 0H5V3H0z"/></clipPath><clipPath id="w"><path d="M 0.761719 0.710938 L 3.84375 0.710938 L 3.84375 2.367188 L 0.761719 2.367188 Z M 0.761719 0.710938"/></clipPath><clipPath id="v"><path d="M0 0H4V3H0z"/></clipPath><clipPath id="x"><path d="M 3 18 L 52.996094 18 L 52.996094 20 L 3 20 Z M 3 18"/></clipPath><clipPath id="A"><path d="M 0.550781 0 L 49.578125 0 L 49.578125 1.65625 L 0.550781 1.65625 Z M 0.550781 0"/></clipPath><clipPath id="z"><path d="M0 0H50V2H0z"/></clipPath><clipPath id="B"><path d="M 2.667969 0 L 52.996094 0 L 52.996094 21 L 2.667969 21 Z M 2.667969 0"/></clipPath><clipPath id="E"><path d="M 0.105469 0.421875 L 41.789062 0.421875 L 41.789062 3 L 0.105469 3 Z M 0.105469 0.421875"/></clipPath><clipPath id="D"><path d="M0 0H42V4H0z"/></clipPath><clipPath id="F"><path d="M 3 48 L 52.996094 48 L 52.996094 55 L 3 55 Z M 3 48"/></clipPath><clipPath id="I"><path d="M 0.316406 1 L 13.578125 1 L 13.578125 2.316406 L 0.316406 2.316406 Z M 0.316406 1"/></clipPath><clipPath id="H"><path d="M0 0H14V3H0z"/></clipPath><clipPath id="L"><path d="M 0.15625 0.078125 L 1.578125 0.078125 L 1.578125 4.578125 L 0.15625 4.578125 Z M 0.15625 0.078125"/></clipPath><clipPath id="K"><path d="M0 0H2V5H0z"/></clipPath><clipPath id="O"><path d="M 0.261719 0.34375 L 1.683594 0.34375 L 1.683594 5.316406 L 0.261719 5.316406 Z M 0.261719 0.34375"/></clipPath><clipPath id="N"><path d="M0 0H2V6H0z"/></clipPath><clipPath id="R"><path d="M 1 0.183594 L 9.738281 0.183594 L 9.738281 2.316406 L 1 2.316406 Z M 1 0.183594"/></clipPath><clipPath id="Q"><path d="M0 0H10V3H0z"/></clipPath><clipPath id="S"><path d="M 3 52 L 52.996094 52 L 52.996094 55 L 3 55 Z M 3 52"/></clipPath><clipPath id="V"><path d="M 0.550781 0.578125 L 49.578125 0.578125 L 49.578125 2.949219 L 0.550781 2.949219 Z M 0.550781 0.578125"/></clipPath><clipPath id="U"><path d="M0 0H50V3H0z"/></clipPath><clipPath id="W"><path d="M 3 48 L 52.996094 48 L 52.996094 51 L 3 51 Z M 3 48"/></clipPath><clipPath id="Z"><path d="M 0.550781 0.789062 L 49.578125 0.789062 L 49.578125 2.683594 L 0.550781 2.683594 Z M 0.550781 0.789062"/></clipPath><clipPath id="Y"><path d="M0 0H50V3H0z"/></clipPath><clipPath id="ac"><path d="M 0.15625 0.472656 L 8.683594 0.472656 L 8.683594 4 L 0.15625 4 Z M 0.15625 0.472656"/></clipPath><clipPath id="ab"><path d="M0 0H9V5H0z"/></clipPath><clipPath id="ad"><path d="M 2.667969 48 L 52.996094 48 L 52.996094 55.511719 L 2.667969 55.511719 Z M 2.667969 48"/></clipPath><clipPath id="ag"><path d="M 0.605469 0.34375 L 3 0.34375 L 3 11 L 0.605469 11 Z M 0.605469 0.34375"/></clipPath><clipPath id="af"><path d="M0 0H4V12H0z"/></clipPath><mask id="b"><g filter="url(#a)"><path fill-opacity=".2" d="M-5.625 -5.625H61.875V61.875H-5.625z"/></g></mask><mask id="e"><g filter="url(#a)"><path fill-opacity=".2" d="M-5.625 -5.625H61.875V61.875H-5.625z"/></g></mask><mask id="i"><g filter="url(#a)"><path fill-opacity=".2" d="M-5.625 -5.625H61.875V61.875H-5.625z"/></g></mask><mask id="l"><g filter="url(#a)"><path fill-opacity=".118" d="M-5.625 -5.625H61.875V61.875H-5.625z"/></g></mask><mask id="o"><g filter="url(#a)"><path fill-opacity=".118" d="M-5.625 -5.625H61.875V61.875H-5.625z"/></g></mask><mask id="r"><g filter="url(#a)"><path fill-opacity=".118" d="M-5.625 -5.625H61.875V61.875H-5.625z"/></g></mask><mask id="u"><g filter="url(#a)"><path fill-opacity=".118" d="M-5.625 -5.625H61.875V61.875H-5.625z"/></g></mask><mask id="y"><g filter="url(#a)"><path fill-opacity=".118" d="M-5.625 -5.625H61.875V61.875H-5.625z"/></g></mask><mask id="C"><g filter="url(#a)"><path fill-opacity=".2" d="M-5.625 -5.625H61.875V61.875H-5.625z"/></g></mask><mask id="G"><g filter="url(#a)"><path fill-opacity=".2" d="M-5.625 -5.625H61.875V61.875H-5.625z"/></g></mask><mask id="J"><g filter="url(#a)"><path fill-opacity=".028" d="M-5.625 -5.625H61.875V61.875H-5.625z"/></g></mask><mask id="M"><g filter="url(#a)"><path fill-opacity=".028" d="M-5.625 -5.625H61.875V61.875H-5.625z"/></g></mask><mask id="P"><g filter="url(#a)"><path fill-opacity=".2" d="M-5.625 -5.625H61.875V61.875H-5.625z"/></g></mask><mask id="T"><g filter="url(#a)"><path fill-opacity=".2" d="M-5.625 -5.625H61.875V61.875H-5.625z"/></g></mask><mask id="X"><g filter="url(#a)"><path fill-opacity=".2" d="M-5.625 -5.625H61.875V61.875H-5.625z"/></g></mask><mask id="aa"><g filter="url(#a)"><path fill-opacity=".02" d="M-5.625 -5.625H61.875V61.875H-5.625z"/></g></mask><mask id="ae"><g filter="url(#a)"><path fill-opacity=".118" d="M-5.625 -5.625H61.875V61.875H-5.625z"/></g></mask><filter x="0%" y="0%" width="100%" xmlns:xlink="http://www.w3.org/1999/xlink" xlink:type="simple" xlink:actuate="onLoad" height="100%" id="a" xlink:show="other"><feColorMatrix values="0 0 0 0 1 0 0 0 0 1 0 0 0 0 1 0 0 0 1 0" color-interpolation-filters="sRGB"/></filter></defs><path fill="#E5AC23" d="M 47.0625 48.894531 L 8.605469 48.894531 C 7.78125 48.894531 7.113281 48.230469 7.113281 47.410156 L 7.113281 21.039062 C 7.113281 20.222656 7.78125 19.554688 8.605469 19.554688 L 47.0625 19.554688 C 47.882812 19.554688 48.550781 20.222656 48.550781 21.039062 L 48.550781 47.410156 C 48.550781 48.230469 47.882812 48.894531 47.0625 48.894531 Z M 47.0625 48.894531"/><g mask="url(#b)"><g><g clip-path="url(#c)" transform="translate(7 19)"><g clip-path="url(#d)"><path fill="#341B07" d="M 0.113281 0.554688 L 41.550781 0.554688 L 41.550781 29.894531 L 0.113281 29.894531 Z M 0.113281 0.554688"/></g></g></g></g><g mask="url(#e)"><g><g clip-path="url(#f)" transform="translate(7 19)"><g clip-path="url(#g)"><path fill="#341B07" d="M 0.113281 0.554688 L 41.550781 0.554688 L 41.550781 3.636719 L 0.113281 3.636719 Z M 0.113281 0.554688"/></g></g></g></g><path fill="#341B07" d="M 49.308594 49.648438 L 6.359375 49.648438 L 6.359375 18.804688 L 49.308594 18.804688 Z M 7.847656 48.164062 L 47.796875 48.164062 L 47.796875 20.308594 L 7.847656 20.308594 Z M 7.847656 48.164062"/><g clip-path="url(#h)"><path fill="#E5AC23" d="M 52.265625 19.554688 L 3.425781 19.554688 L 3.425781 7.101562 C 3.425781 3.625 6.246094 0.808594 9.738281 0.808594 L 45.949219 0.808594 C 49.441406 0.808594 52.265625 3.625 52.265625 7.101562 Z M 52.265625 19.554688"/></g><g mask="url(#i)"><g><g clip-path="url(#j)" transform="translate(3 1)"><g clip-path="url(#k)"><path fill="#CDCAB4" d="M 42.929688 0.429688 L 6.714844 0.429688 C 3.601562 0.429688 1.046875 2.980469 1.046875 6.082031 L 1.046875 17.050781 L 1.824219 17.050781 L 1.824219 6.082031 C 1.824219 3.378906 4.027344 1.183594 6.738281 1.183594 L 42.949219 1.183594 C 45.664062 1.183594 47.863281 3.378906 47.863281 6.082031 L 47.863281 17.050781 L 48.640625 17.050781 L 48.640625 6.082031 C 48.621094 2.980469 46.0625 0.429688 42.929688 0.429688 Z M 42.929688 0.429688"/></g></g></g></g><g mask="url(#l)"><g><g clip-path="url(#m)" transform="translate(38 6)"><g clip-path="url(#n)"><path fill="#341B07" d="M 9.773438 5.292969 C 9.773438 5.574219 9.746094 5.851562 9.6875 6.128906 C 9.628906 6.40625 9.542969 6.675781 9.433594 6.9375 C 9.320312 7.195312 9.179688 7.445312 9.015625 7.679688 C 8.851562 7.914062 8.667969 8.132812 8.457031 8.332031 C 8.25 8.53125 8.023438 8.707031 7.777344 8.867188 C 7.53125 9.023438 7.273438 9.15625 7 9.261719 C 6.730469 9.371094 6.449219 9.453125 6.160156 9.507812 C 5.871094 9.5625 5.578125 9.589844 5.28125 9.589844 C 4.988281 9.589844 4.695312 9.5625 4.40625 9.507812 C 4.117188 9.453125 3.835938 9.371094 3.566406 9.261719 C 3.292969 9.15625 3.035156 9.023438 2.789062 8.867188 C 2.542969 8.707031 2.316406 8.53125 2.109375 8.332031 C 1.898438 8.132812 1.714844 7.914062 1.550781 7.679688 C 1.386719 7.445312 1.246094 7.195312 1.132812 6.9375 C 1.023438 6.675781 0.9375 6.40625 0.878906 6.128906 C 0.820312 5.851562 0.792969 5.574219 0.792969 5.292969 C 0.792969 5.007812 0.820312 4.730469 0.878906 4.453125 C 0.9375 4.175781 1.023438 3.90625 1.132812 3.644531 C 1.246094 3.386719 1.386719 3.136719 1.550781 2.902344 C 1.714844 2.667969 1.898438 2.449219 2.109375 2.25 C 2.316406 2.050781 2.542969 1.875 2.789062 1.71875 C 3.035156 1.558594 3.292969 1.425781 3.566406 1.320312 C 3.835938 1.210938 4.117188 1.128906 4.40625 1.074219 C 4.695312 1.019531 4.988281 0.992188 5.28125 0.992188 C 5.578125 0.992188 5.871094 1.019531 6.160156 1.074219 C 6.449219 1.128906 6.730469 1.210938 7 1.320312 C 7.273438 1.425781 7.53125 1.558594 7.777344 1.71875 C 8.023438 1.875 8.25 2.050781 8.457031 2.25 C 8.667969 2.449219 8.851562 2.667969 9.015625 2.902344 C 9.179688 3.136719 9.320312 3.386719 9.433594 3.644531 C 9.542969 3.90625 9.628906 4.175781 9.6875 4.453125 C 9.746094 4.730469 9.773438 5.007812 9.773438 5.292969 Z M 9.773438 5.292969"/></g></g></g></g><path fill="#CDCAB4" d="M 47.417969 11.578125 C 47.417969 12.074219 47.324219 12.546875 47.132812 13.003906 C 46.945312 13.460938 46.675781 13.863281 46.324219 14.210938 C 45.972656 14.558594 45.570312 14.828125 45.113281 15.019531 C 44.65625 15.207031 44.179688 15.300781 43.683594 15.300781 C 43.1875 15.300781 42.710938 15.207031 42.253906 15.019531 C 41.796875 14.828125 41.394531 14.558594 41.042969 14.210938 C 40.691406 13.863281 40.421875 13.460938 40.234375 13.003906 C 40.042969 12.546875 39.949219 12.074219 39.949219 11.578125 C 39.949219 11.085938 40.042969 10.609375 40.234375 10.15625 C 40.421875 9.699219 40.691406 9.296875 41.042969 8.945312 C 41.394531 8.597656 41.796875 8.328125 42.253906 8.140625 C 42.710938 7.949219 43.1875 7.855469 43.683594 7.855469 C 44.179688 7.855469 44.65625 7.949219 45.113281 8.140625 C 45.570312 8.328125 45.972656 8.597656 46.324219 8.945312 C 46.675781 9.296875 46.945312 9.699219 47.132812 10.15625 C 47.324219 10.609375 47.417969 11.085938 47.417969 11.578125 Z M 47.417969 11.578125"/><path fill="#341B07" d="M 45.882812 10.9375 C 45.75 10.9375 45.59375 10.847656 45.527344 10.714844 C 45.195312 10.007812 44.460938 9.5625 43.683594 9.5625 C 42.90625 9.5625 42.171875 10.027344 41.839844 10.714844 C 41.75 10.914062 41.527344 10.980469 41.328125 10.890625 C 41.125 10.804688 41.058594 10.582031 41.148438 10.382812 C 41.617188 9.40625 42.59375 8.789062 43.683594 8.789062 C 44.773438 8.789062 45.75 9.40625 46.21875 10.382812 C 46.304688 10.582031 46.21875 10.804688 46.039062 10.890625 C 45.996094 10.914062 45.929688 10.9375 45.882812 10.9375 Z M 45.882812 10.9375"/><path fill="#341B07" d="M 43.773438 10.183594 L 44.21875 11.558594 C 44.304688 11.84375 44.148438 12.15625 43.859375 12.265625 C 43.570312 12.355469 43.261719 12.199219 43.148438 11.910156 C 43.105469 11.800781 43.105469 11.667969 43.148438 11.558594 L 43.59375 10.183594 C 43.617188 10.140625 43.660156 10.117188 43.707031 10.140625 C 43.75 10.140625 43.75 10.160156 43.773438 10.183594 Z M 43.773438 10.183594"/><path fill="#341B07" d="M 43.929688 13.90625 C 43.929688 13.972656 43.902344 14.03125 43.855469 14.078125 C 43.808594 14.125 43.75 14.148438 43.683594 14.148438 C 43.617188 14.148438 43.558594 14.125 43.511719 14.078125 C 43.460938 14.03125 43.4375 13.972656 43.4375 13.90625 C 43.4375 13.839844 43.460938 13.78125 43.511719 13.734375 C 43.558594 13.6875 43.617188 13.660156 43.683594 13.660156 C 43.75 13.660156 43.808594 13.6875 43.855469 13.734375 C 43.902344 13.78125 43.929688 13.839844 43.929688 13.90625 Z M 43.929688 13.90625"/><path fill="#341B07" d="M 44.839844 13.90625 C 44.839844 13.972656 44.816406 14.03125 44.769531 14.078125 C 44.71875 14.125 44.664062 14.148438 44.59375 14.148438 C 44.527344 14.148438 44.46875 14.125 44.421875 14.078125 C 44.375 14.03125 44.351562 13.972656 44.351562 13.90625 C 44.351562 13.839844 44.375 13.78125 44.421875 13.734375 C 44.46875 13.6875 44.527344 13.660156 44.59375 13.660156 C 44.664062 13.660156 44.71875 13.6875 44.769531 13.734375 C 44.816406 13.78125 44.839844 13.839844 44.839844 13.90625 Z M 44.839844 13.90625"/><path fill="#341B07" d="M 43.015625 13.90625 C 43.015625 13.972656 42.992188 14.03125 42.945312 14.078125 C 42.898438 14.125 42.839844 14.148438 42.773438 14.148438 C 42.703125 14.148438 42.648438 14.125 42.597656 14.078125 C 42.550781 14.03125 42.527344 13.972656 42.527344 13.90625 C 42.527344 13.839844 42.550781 13.78125 42.597656 13.734375 C 42.648438 13.6875 42.703125 13.660156 42.773438 13.660156 C 42.839844 13.660156 42.898438 13.6875 42.945312 13.734375 C 42.992188 13.78125 43.015625 13.839844 43.015625 13.90625 Z M 43.015625 13.90625"/><g mask="url(#o)"><g><g clip-path="url(#p)" transform="translate(39 7)"><g clip-path="url(#q)"><path fill="#341B07" d="M 4.683594 0.855469 C 2.617188 0.855469 0.949219 2.519531 0.949219 4.578125 C 0.949219 6.640625 2.617188 8.300781 4.683594 8.300781 C 6.75 8.300781 8.417969 6.640625 8.417969 4.578125 C 8.417969 2.519531 6.75 0.855469 4.683594 0.855469 Z M 5.105469 7.769531 C 3.503906 7.769531 2.214844 6.484375 2.214844 4.890625 C 2.214844 3.292969 3.503906 2.007812 5.105469 2.007812 C 6.707031 2.007812 7.996094 3.292969 7.996094 4.890625 C 7.996094 6.460938 6.707031 7.769531 5.105469 7.769531 Z M 5.105469 7.769531"/></g></g></g></g><path fill="#341B07" d="M 43.683594 15.832031 C 41.328125 15.832031 39.414062 13.929688 39.414062 11.578125 C 39.414062 9.230469 41.328125 7.324219 43.683594 7.324219 C 46.039062 7.324219 47.953125 9.230469 47.953125 11.578125 C 47.953125 13.929688 46.039062 15.832031 43.683594 15.832031 Z M 43.683594 8.386719 C 41.925781 8.386719 40.480469 9.828125 40.480469 11.578125 C 40.480469 13.328125 41.925781 14.769531 43.683594 14.769531 C 45.441406 14.769531 46.882812 13.328125 46.882812 11.578125 C 46.882812 9.828125 45.460938 8.386719 43.683594 8.386719 Z M 43.683594 8.386719"/><path fill="#341B07" d="M 16.960938 9.804688 C 16.960938 9.996094 16.925781 10.175781 16.855469 10.347656 C 16.78125 10.523438 16.679688 10.675781 16.546875 10.808594 C 16.414062 10.941406 16.257812 11.042969 16.085938 11.117188 C 15.910156 11.1875 15.730469 11.226562 15.539062 11.226562 C 15.351562 11.226562 15.167969 11.1875 14.996094 11.117188 C 14.820312 11.042969 14.667969 10.941406 14.535156 10.808594 C 14.402344 10.675781 14.296875 10.523438 14.226562 10.347656 C 14.152344 10.175781 14.117188 9.996094 14.117188 9.804688 C 14.117188 9.617188 14.152344 9.4375 14.226562 9.265625 C 14.296875 9.089844 14.402344 8.9375 14.535156 8.804688 C 14.667969 8.671875 14.820312 8.566406 14.996094 8.496094 C 15.167969 8.425781 15.351562 8.386719 15.539062 8.386719 C 15.730469 8.386719 15.910156 8.425781 16.085938 8.496094 C 16.257812 8.566406 16.414062 8.671875 16.546875 8.804688 C 16.679688 8.9375 16.78125 9.089844 16.855469 9.265625 C 16.925781 9.4375 16.960938 9.617188 16.960938 9.804688 Z M 16.960938 9.804688"/><path fill="#341B07" d="M 15.539062 11.644531 C 14.515625 11.644531 13.695312 10.824219 13.695312 9.804688 C 13.695312 8.789062 14.515625 7.96875 15.539062 7.96875 C 16.5625 7.96875 17.386719 8.789062 17.386719 9.804688 C 17.386719 10.824219 16.5625 11.644531 15.539062 11.644531 Z M 15.539062 8.808594 C 14.984375 8.808594 14.539062 9.253906 14.539062 9.804688 C 14.539062 10.359375 14.984375 10.804688 15.539062 10.804688 C 16.097656 10.804688 16.539062 10.359375 16.539062 9.804688 C 16.539062 9.253906 16.097656 8.808594 15.539062 8.808594 Z M 15.539062 8.808594"/><path fill="#341B07" d="M 14.652344 14.105469 L 16.40625 14.105469 L 16.40625 15.855469 L 14.652344 15.855469 Z M 14.652344 14.105469"/><g mask="url(#r)"><g><g clip-path="url(#s)" transform="translate(13 9)"><g clip-path="url(#t)"><path fill="#341B07" d="M 3.960938 0.804688 C 3.960938 1.582031 3.316406 2.226562 2.539062 2.226562 C 1.761719 2.226562 1.117188 1.582031 1.117188 0.804688"/></g></g></g></g><path fill="#E5AC23" d="M 11.738281 9.804688 C 11.738281 9.996094 11.703125 10.175781 11.628906 10.347656 C 11.558594 10.523438 11.457031 10.675781 11.320312 10.808594 C 11.1875 10.941406 11.035156 11.042969 10.859375 11.117188 C 10.6875 11.1875 10.503906 11.226562 10.316406 11.226562 C 10.128906 11.226562 9.945312 11.1875 9.769531 11.117188 C 9.597656 11.042969 9.441406 10.941406 9.308594 10.808594 C 9.175781 10.675781 9.074219 10.523438 9 10.347656 C 8.929688 10.175781 8.894531 9.996094 8.894531 9.804688 C 8.894531 9.617188 8.929688 9.4375 9 9.265625 C 9.074219 9.089844 9.175781 8.9375 9.308594 8.804688 C 9.441406 8.671875 9.597656 8.566406 9.769531 8.496094 C 9.945312 8.425781 10.128906 8.386719 10.316406 8.386719 C 10.503906 8.386719 10.6875 8.425781 10.859375 8.496094 C 11.035156 8.566406 11.1875 8.671875 11.320312 8.804688 C 11.457031 8.9375 11.558594 9.089844 11.628906 9.265625 C 11.703125 9.4375 11.738281 9.617188 11.738281 9.804688 Z M 11.738281 9.804688"/><path fill="#341B07" d="M 10.316406 11.644531 C 9.292969 11.644531 8.472656 10.824219 8.472656 9.804688 C 8.472656 8.789062 9.292969 7.96875 10.316406 7.96875 C 11.339844 7.96875 12.160156 8.789062 12.160156 9.804688 C 12.160156 10.824219 11.339844 11.644531 10.316406 11.644531 Z M 10.316406 8.808594 C 9.761719 8.808594 9.316406 9.253906 9.316406 9.804688 C 9.316406 10.359375 9.761719 10.804688 10.316406 10.804688 C 10.871094 10.804688 11.316406 10.359375 11.316406 9.804688 C 11.316406 9.253906 10.847656 8.808594 10.316406 8.808594 Z M 10.316406 8.808594"/><path fill="#341B07" d="M 9.425781 14.105469 L 11.183594 14.105469 L 11.183594 15.855469 L 9.425781 15.855469 Z M 9.425781 14.105469"/><g mask="url(#u)"><g><g clip-path="url(#v)" transform="translate(8 9)"><g clip-path="url(#w)"><path fill="#341B07" d="M 3.738281 0.804688 C 3.738281 1.582031 3.09375 2.226562 2.316406 2.226562 C 1.539062 2.226562 0.894531 1.582031 0.894531 0.804688"/></g></g></g></g><path fill="#341B07" d="M 50.417969 17.183594 C 50.417969 17.339844 50.363281 17.46875 50.257812 17.578125 C 50.148438 17.683594 50.015625 17.738281 49.863281 17.738281 C 49.710938 17.738281 49.578125 17.683594 49.46875 17.578125 C 49.363281 17.46875 49.308594 17.339844 49.308594 17.183594 C 49.308594 17.03125 49.363281 16.902344 49.46875 16.792969 C 49.578125 16.683594 49.710938 16.632812 49.863281 16.632812 C 50.015625 16.632812 50.148438 16.683594 50.257812 16.792969 C 50.363281 16.902344 50.417969 17.03125 50.417969 17.183594 Z M 50.417969 17.183594"/><path fill="#341B07" d="M 50.417969 6.570312 C 50.417969 6.722656 50.363281 6.855469 50.257812 6.964844 C 50.148438 7.070312 50.015625 7.125 49.863281 7.125 C 49.710938 7.125 49.578125 7.070312 49.46875 6.964844 C 49.363281 6.855469 49.308594 6.722656 49.308594 6.570312 C 49.308594 6.417969 49.363281 6.289062 49.46875 6.179688 C 49.578125 6.070312 49.710938 6.015625 49.863281 6.015625 C 50.015625 6.015625 50.148438 6.070312 50.257812 6.179688 C 50.363281 6.289062 50.417969 6.417969 50.417969 6.570312 Z M 50.417969 6.570312"/><path fill="#341B07" d="M 6.292969 17.183594 C 6.292969 17.339844 6.238281 17.46875 6.128906 17.578125 C 6.019531 17.683594 5.890625 17.738281 5.738281 17.738281 C 5.582031 17.738281 5.453125 17.683594 5.34375 17.578125 C 5.234375 17.46875 5.179688 17.339844 5.179688 17.183594 C 5.179688 17.03125 5.234375 16.902344 5.34375 16.792969 C 5.453125 16.683594 5.582031 16.632812 5.738281 16.632812 C 5.890625 16.632812 6.019531 16.683594 6.128906 16.792969 C 6.238281 16.902344 6.292969 17.03125 6.292969 17.183594 Z M 6.292969 17.183594"/><path fill="#341B07" d="M 6.292969 6.570312 C 6.292969 6.722656 6.238281 6.855469 6.128906 6.964844 C 6.019531 7.070312 5.890625 7.125 5.738281 7.125 C 5.582031 7.125 5.453125 7.070312 5.34375 6.964844 C 5.234375 6.855469 5.179688 6.722656 5.179688 6.570312 C 5.179688 6.417969 5.234375 6.289062 5.34375 6.179688 C 5.453125 6.070312 5.582031 6.015625 5.738281 6.015625 C 5.890625 6.015625 6.019531 6.070312 6.128906 6.179688 C 6.238281 6.289062 6.292969 6.417969 6.292969 6.570312 Z M 6.292969 6.570312"/><g clip-path="url(#x)"><g mask="url(#y)"><g><g clip-path="url(#z)" transform="translate(3 18)"><g clip-path="url(#A)"><path fill="#341B07" d="M 0.9375 0.0507812 L 49.265625 0.0507812 L 49.265625 1.554688 L 0.9375 1.554688 Z M 0.9375 0.0507812"/></g></g></g></g></g><g clip-path="url(#B)"><path fill="#341B07" d="M 52.996094 20.308594 L 2.667969 20.308594 L 2.667969 7.101562 C 2.667969 3.203125 5.824219 0.0585938 9.738281 0.0585938 L 45.949219 0.0585938 C 49.839844 0.0585938 53.019531 3.203125 53.019531 7.101562 L 53.019531 20.308594 Z M 4.15625 18.804688 L 51.507812 18.804688 L 51.507812 7.101562 C 51.507812 4.046875 49.019531 1.5625 45.949219 1.5625 L 9.738281 1.5625 C 6.671875 1.5625 4.179688 4.046875 4.179688 7.101562 L 4.179688 18.804688 Z M 4.15625 18.804688"/></g><path fill="#341B07" d="M 3.9375 4.15625 L 51.574219 4.15625 L 51.574219 5 L 3.9375 5 Z M 3.9375 4.15625"/><g mask="url(#C)"><g><g clip-path="url(#D)" transform="translate(7 46)"><g clip-path="url(#E)"><path fill="#341B07" d="M 0.113281 0.765625 L 41.550781 0.765625 L 41.550781 2.894531 L 0.113281 2.894531 Z M 0.113281 0.765625"/></g></g></g></g><g clip-path="url(#F)"><path fill="#E5AC23" d="M 52.265625 54.699219 L 3.425781 54.699219 L 3.425781 50.820312 C 3.425781 49.757812 4.292969 48.871094 5.378906 48.871094 L 50.328125 48.871094 C 51.398438 48.871094 52.285156 49.734375 52.285156 50.820312 L 52.285156 54.699219 Z M 52.265625 54.699219"/></g><path fill="#E5AC23" d="M 33.28125 25.738281 L 22.386719 25.738281 C 21.699219 25.738281 21.140625 25.183594 21.140625 24.496094 L 21.140625 19.554688 L 34.523438 19.554688 L 34.523438 24.496094 C 34.523438 25.183594 33.96875 25.738281 33.28125 25.738281 Z M 33.28125 25.738281"/><g mask="url(#G)"><g><g clip-path="url(#H)" transform="translate(21 19)"><g clip-path="url(#I)"><path fill="#341B07" d="M 0.476562 1.109375 L 13.28125 1.109375 L 13.28125 2.105469 L 0.476562 2.105469 Z M 0.476562 1.109375"/></g></g></g></g><path fill="#E5AC23" d="M 23.074219 25.738281 L 32.613281 25.738281 L 32.613281 30.304688 L 23.074219 30.304688 Z M 23.074219 25.738281"/><g mask="url(#J)"><g><g clip-path="url(#K)" transform="translate(33 21)"><g clip-path="url(#L)"><path fill="#CDCAB4" d="M 0.390625 0.105469 L 1.257812 0.105469 L 1.257812 4.449219 L 0.390625 4.449219 Z M 0.390625 0.105469"/></g></g></g></g><g mask="url(#M)"><g><g clip-path="url(#N)" transform="translate(31 25)"><g clip-path="url(#O)"><path fill="#CDCAB4" d="M 0.546875 0.738281 L 1.414062 0.738281 L 1.414062 5.082031 L 0.546875 5.082031 Z M 0.546875 0.738281"/></g></g></g></g><path fill="#341B07" d="M 33.28125 26.269531 L 22.386719 26.269531 C 21.410156 26.269531 20.609375 25.472656 20.609375 24.496094 L 20.609375 19.023438 L 35.058594 19.023438 L 35.058594 24.496094 C 35.058594 25.472656 34.257812 26.269531 33.28125 26.269531 Z M 21.675781 20.089844 L 21.675781 24.496094 C 21.675781 24.894531 21.988281 25.207031 22.386719 25.207031 L 33.28125 25.207031 C 33.679688 25.207031 33.992188 24.894531 33.992188 24.496094 L 33.992188 20.089844 Z M 21.675781 20.089844"/><g mask="url(#P)"><g><g clip-path="url(#Q)" transform="translate(22 28)"><g clip-path="url(#R)"><path fill="#341B07" d="M 1.253906 0.617188 L 9.546875 0.617188 L 9.546875 2.082031 L 1.253906 2.082031 Z M 1.253906 0.617188"/></g></g></g></g><path fill="#341B07" d="M 33.125 30.835938 L 22.542969 30.835938 L 22.542969 25.207031 L 33.125 25.207031 Z M 23.609375 29.769531 L 32.078125 29.769531 L 32.078125 26.269531 L 23.609375 26.269531 Z M 23.609375 29.769531"/><path fill="#341B07" d="M 23.074219 27.910156 L 32.613281 27.910156 L 32.613281 28.753906 L 23.074219 28.753906 Z M 23.074219 27.910156"/><path fill="#E5AC23" d="M 41.394531 48.894531 L 14.273438 48.894531 L 14.273438 47.585938 C 14.273438 46.480469 15.183594 45.570312 16.296875 45.570312 L 39.371094 45.570312 C 40.480469 45.570312 41.394531 46.480469 41.394531 47.585938 Z M 41.394531 48.894531"/><path fill="#341B07" d="M 32.589844 27.621094 L 37.28125 27.621094 L 37.28125 29.0625 L 32.589844 29.0625 Z M 32.589844 27.621094"/><path fill="#341B07" d="M 37.726562 29.484375 L 32.191406 29.484375 L 32.191406 27.179688 L 37.726562 27.179688 Z M 33.011719 28.640625 L 36.859375 28.640625 L 36.859375 28.042969 L 33.011719 28.042969 Z M 33.011719 28.640625"/><g clip-path="url(#S)"><g mask="url(#T)"><g><g clip-path="url(#U)" transform="translate(3 52)"><g clip-path="url(#V)"><path fill="#341B07" d="M 0.9375 0.949219 L 49.265625 0.949219 L 49.265625 2.722656 L 0.9375 2.722656 Z M 0.9375 0.949219"/></g></g></g></g></g><g clip-path="url(#W)"><g mask="url(#X)"><g><g clip-path="url(#Y)" transform="translate(3 48)"><g clip-path="url(#Z)"><path fill="#CDCAB4" d="M 0.9375 0.894531 L 49.265625 0.894531 L 49.265625 2.511719 L 0.9375 2.511719 Z M 0.9375 0.894531"/></g></g></g></g></g><g mask="url(#aa)"><g><g clip-path="url(#ab)" transform="translate(33 45)"><g clip-path="url(#ac)"><path fill="#CDCAB4" d="M 8.394531 3.894531 L 0.390625 3.894531 L 0.390625 0.570312 L 6.394531 0.570312 C 7.503906 0.570312 8.394531 1.457031 8.394531 2.566406 Z M 8.394531 3.894531"/></g></g></g></g><path fill="#341B07" d="M 42.039062 49.535156 L 13.628906 49.535156 L 13.628906 47.585938 C 13.628906 46.125 14.828125 44.929688 16.296875 44.929688 L 39.371094 44.929688 C 40.835938 44.929688 42.039062 46.125 42.039062 47.585938 Z M 14.917969 48.25 L 40.75 48.25 L 40.75 47.566406 C 40.75 46.8125 40.125 46.191406 39.371094 46.191406 L 16.296875 46.191406 C 15.539062 46.191406 14.917969 46.8125 14.917969 47.566406 Z M 14.917969 48.25"/><g clip-path="url(#ad)"><path fill="#341B07" d="M 52.996094 55.453125 L 2.667969 55.453125 L 2.667969 50.84375 C 2.667969 49.359375 3.871094 48.164062 5.359375 48.164062 L 50.308594 48.164062 C 51.796875 48.164062 52.996094 49.359375 52.996094 50.84375 Z M 4.15625 53.96875 L 51.507812 53.96875 L 51.507812 50.84375 C 51.507812 50.179688 50.976562 49.648438 50.308594 49.648438 L 5.359375 49.648438 C 4.691406 49.648438 4.15625 50.179688 4.15625 50.84375 Z M 4.15625 53.96875"/></g><path fill="#E5AC23" d="M 45.261719 29.835938 L 37.304688 29.835938 L 37.304688 26.867188 L 45.261719 26.867188 C 46.085938 26.867188 46.75 27.535156 46.75 28.351562 C 46.75 29.152344 46.085938 29.835938 45.261719 29.835938 Z M 45.261719 29.835938"/><path fill="#341B07" d="M 45.261719 30.257812 L 36.882812 30.257812 L 36.882812 26.425781 L 45.261719 26.425781 C 46.328125 26.425781 47.171875 27.289062 47.171875 28.332031 C 47.171875 29.394531 46.304688 30.257812 45.261719 30.257812 Z M 37.726562 29.394531 L 45.261719 29.394531 C 45.839844 29.394531 46.328125 28.90625 46.328125 28.332031 C 46.328125 27.753906 45.839844 27.265625 45.261719 27.265625 L 37.726562 27.265625 Z M 37.726562 29.394531"/><path fill="#341B07" d="M 39.105469 26.847656 L 39.75 26.847656 L 39.75 29.769531 L 39.105469 29.769531 Z M 39.105469 26.847656"/><path fill="#341B07" d="M 7.582031 51.597656 C 7.582031 51.726562 7.535156 51.835938 7.445312 51.925781 C 7.355469 52.015625 7.242188 52.0625 7.113281 52.0625 C 6.984375 52.0625 6.875 52.015625 6.785156 51.925781 C 6.695312 51.835938 6.648438 51.726562 6.648438 51.597656 C 6.648438 51.46875 6.695312 51.359375 6.785156 51.269531 C 6.875 51.175781 6.984375 51.132812 7.113281 51.132812 C 7.242188 51.132812 7.355469 51.175781 7.445312 51.269531 C 7.535156 51.359375 7.582031 51.46875 7.582031 51.597656 Z M 7.582031 51.597656"/><path fill="#341B07" d="M 49.394531 51.597656 C 49.394531 51.714844 49.355469 51.8125 49.273438 51.894531 C 49.191406 51.976562 49.089844 52.019531 48.972656 52.019531 C 48.855469 52.019531 48.757812 51.976562 48.675781 51.894531 C 48.59375 51.8125 48.550781 51.714844 48.550781 51.597656 C 48.550781 51.480469 48.59375 51.382812 48.675781 51.300781 C 48.757812 51.21875 48.855469 51.175781 48.972656 51.175781 C 49.089844 51.175781 49.191406 51.21875 49.273438 51.300781 C 49.355469 51.382812 49.394531 51.480469 49.394531 51.597656 Z M 49.394531 51.597656"/><path fill="#CDCAB4" d="M 29.679688 45.347656 L 25.964844 45.347656 C 22.632812 45.347656 19.941406 42.667969 19.941406 39.34375 L 19.941406 34.578125 L 35.703125 34.578125 L 35.703125 39.34375 C 35.726562 42.667969 33.011719 45.347656 29.679688 45.347656 Z M 29.679688 45.347656"/><path fill="#CDCAB4" d="M 37.191406 42.425781 L 35.371094 42.425781 L 35.371094 39.453125 L 37.191406 39.453125 C 37.527344 39.453125 37.816406 39.320312 38.035156 39.101562 C 38.28125 38.855469 38.390625 38.566406 38.390625 38.234375 C 38.390625 37.570312 37.859375 37.039062 37.191406 37.039062 L 35.546875 37.039062 L 35.546875 34.070312 L 37.191406 34.070312 C 39.503906 34.070312 41.394531 35.953125 41.394531 38.257812 C 41.394531 39.367188 40.949219 40.429688 40.171875 41.207031 C 39.371094 41.980469 38.324219 42.425781 37.191406 42.425781 Z M 37.191406 42.425781"/><path fill="#341B07" d="M 37.191406 35.113281 C 38.925781 35.113281 40.328125 36.507812 40.328125 38.234375 C 40.328125 39.078125 39.992188 39.855469 39.414062 40.453125 C 38.835938 41.050781 38.035156 41.359375 37.214844 41.359375 L 36.457031 41.359375 L 36.457031 40.519531 L 37.214844 40.519531 C 37.816406 40.519531 38.390625 40.273438 38.816406 39.855469 C 39.238281 39.410156 39.480469 38.855469 39.480469 38.234375 C 39.480469 36.996094 38.460938 35.976562 37.214844 35.976562 L 36.636719 35.976562 L 36.636719 35.132812 L 37.191406 35.132812 M 37.191406 34.046875 L 35.546875 34.046875 L 35.546875 37.015625 L 37.191406 37.015625 C 37.859375 37.015625 38.390625 37.550781 38.390625 38.214844 C 38.390625 38.523438 38.257812 38.835938 38.035156 39.078125 C 37.816406 39.300781 37.503906 39.433594 37.191406 39.433594 L 35.371094 39.433594 L 35.371094 42.402344 L 37.191406 42.402344 C 38.324219 42.402344 39.371094 41.957031 40.148438 41.183594 C 40.949219 40.386719 41.371094 39.34375 41.371094 38.234375 C 41.394531 35.929688 39.503906 34.046875 37.191406 34.046875 Z M 37.191406 34.046875"/><g mask="url(#ae)"><g><g clip-path="url(#af)" transform="translate(29 34)"><g clip-path="url(#ag)"><path fill="#CDCAB4" d="M 0.878906 0.578125 L 2.902344 0.578125 L 2.902344 10.929688 L 0.878906 10.929688 Z M 0.878906 0.578125"/></g></g></g></g><path fill="#341B07" d="M 19.964844 36.265625 L 35.902344 36.265625 L 35.902344 36.90625 L 19.964844 36.90625 Z M 19.964844 36.265625"/><path fill="#341B07" d="M 29.679688 45.878906 L 25.964844 45.878906 C 22.34375 45.878906 19.40625 42.957031 19.40625 39.34375 L 19.40625 34.046875 L 36.234375 34.046875 L 36.234375 39.34375 C 36.257812 42.957031 33.300781 45.878906 29.679688 45.878906 Z M 20.496094 35.113281 L 20.496094 39.34375 C 20.496094 42.359375 22.964844 44.816406 25.988281 44.816406 L 29.699219 44.816406 C 32.722656 44.816406 35.191406 42.359375 35.191406 39.34375 L 35.191406 35.113281 Z M 20.496094 35.113281"/><path fill="#341B07" d="M 27.320312 4.597656 L 28.167969 4.597656 L 28.167969 19.335938 L 27.320312 19.335938 Z M 27.320312 4.597656"/></svg>