<svg xmlns="http://www.w3.org/2000/svg" xmlns:xlink="http://www.w3.org/1999/xlink" width="75" viewBox="0 0 75 75" height="75" version="1.0"><defs><clipPath id="d"><path d="M 0.359375 0.398438 L 56.519531 0.398438 L 56.519531 40.480469 L 0.359375 40.480469 Z M 0.359375 0.398438"/></clipPath><clipPath id="c"><path d="M0 0H57V41H0z"/></clipPath><clipPath id="g"><path d="M 0.359375 0.398438 L 56.519531 0.398438 L 56.519531 4.71875 L 0.359375 4.71875 Z M 0.359375 0.398438"/></clipPath><clipPath id="f"><path d="M0 0H57V5H0z"/></clipPath><clipPath id="j"><path d="M 0.28125 0.679688 L 64.601562 0.679688 L 64.601562 23.71875 L 0.28125 23.71875 Z M 0.28125 0.679688"/></clipPath><clipPath id="i"><path d="M0 0H65V24H0z"/></clipPath><clipPath id="m"><path d="M 1 0.121094 L 13.320312 0.121094 L 13.320312 12.359375 L 1 12.359375 Z M 1 0.121094"/></clipPath><clipPath id="l"><path d="M0 0H14V13H0z"/></clipPath><clipPath id="p"><path d="M 0.28125 0.320312 L 10.839844 0.320312 L 10.839844 10.878906 L 0.28125 10.878906 Z M 0.28125 0.320312"/></clipPath><clipPath id="o"><path d="M0 0H11V11H0z"/></clipPath><clipPath id="s"><path d="M 0.71875 0.199219 L 5 0.199219 L 5 2.359375 L 0.71875 2.359375 Z M 0.71875 0.199219"/></clipPath><clipPath id="r"><path d="M0 0H6V3H0z"/></clipPath><clipPath id="v"><path d="M 0.761719 0.199219 L 4.839844 0.199219 L 4.839844 2.359375 L 0.761719 2.359375 Z M 0.761719 0.199219"/></clipPath><clipPath id="u"><path d="M0 0H5V3H0z"/></clipPath><clipPath id="y"><path d="M 0.0390625 0.238281 L 65.558594 0.238281 L 65.558594 2.640625 L 0.0390625 2.640625 Z M 0.0390625 0.238281"/></clipPath><clipPath id="x"><path d="M0 0H66V3H0z"/></clipPath><clipPath id="z"><path d="M 3.605469 0 L 71.105469 0 L 71.105469 28 L 3.605469 28 Z M 3.605469 0"/></clipPath><clipPath id="C"><path d="M 0.359375 1 L 56.519531 1 L 56.519531 4.480469 L 0.359375 4.480469 Z M 0.359375 1"/></clipPath><clipPath id="B"><path d="M0 0H57V5H0z"/></clipPath><clipPath id="F"><path d="M 0.558594 1 L 18.320312 1 L 18.320312 2.558594 L 0.558594 2.558594 Z M 0.558594 1"/></clipPath><clipPath id="E"><path d="M0 0H19V3H0z"/></clipPath><clipPath id="I"><path d="M 0.640625 0.320312 L 2 0.320312 L 2 6.558594 L 0.640625 6.558594 Z M 0.640625 0.320312"/></clipPath><clipPath id="H"><path d="M0 0H3V7H0z"/></clipPath><clipPath id="L"><path d="M 0 0.320312 L 1.679688 0.320312 L 1.679688 6.800781 L 0 6.800781 Z M 0 0.320312"/></clipPath><clipPath id="K"><path d="M0 0H2V7H0z"/></clipPath><clipPath id="O"><path d="M 1 0.160156 L 12.480469 0.160156 L 12.480469 2.800781 L 1 2.800781 Z M 1 0.160156"/></clipPath><clipPath id="N"><path d="M0 0H13V3H0z"/></clipPath><clipPath id="R"><path d="M 0.0390625 0.28125 L 65.558594 0.28125 L 65.558594 3 L 0.0390625 3 Z M 0.0390625 0.28125"/></clipPath><clipPath id="Q"><path d="M0 0H66V4H0z"/></clipPath><clipPath id="U"><path d="M 0.0390625 1 L 65.558594 1 L 65.558594 3.398438 L 0.0390625 3.398438 Z M 0.0390625 1"/></clipPath><clipPath id="T"><path d="M0 0H66V4H0z"/></clipPath><clipPath id="X"><path d="M 0.640625 0.441406 L 11.921875 0.441406 L 11.921875 5.480469 L 0.640625 5.480469 Z M 0.640625 0.441406"/></clipPath><clipPath id="W"><path d="M0 0H12V6H0z"/></clipPath><clipPath id="Y"><path d="M 3.605469 65 L 71.105469 65 L 71.105469 75 L 3.605469 75 Z M 3.605469 65"/></clipPath><clipPath id="ab"><path d="M 1 0.320312 L 4 0.320312 L 4 14.960938 L 1 14.960938 Z M 1 0.320312"/></clipPath><clipPath id="aa"><path d="M0 0H5V15H0z"/></clipPath><mask id="b"><g filter="url(#a)"><path fill-opacity=".2" d="M-7.5 -7.5H82.5V82.5H-7.5z"/></g></mask><mask id="e"><g filter="url(#a)"><path fill-opacity=".2" d="M-7.5 -7.5H82.5V82.5H-7.5z"/></g></mask><mask id="h"><g filter="url(#a)"><path fill-opacity=".2" d="M-7.5 -7.5H82.5V82.5H-7.5z"/></g></mask><mask id="k"><g filter="url(#a)"><path fill-opacity=".118" d="M-7.5 -7.5H82.5V82.5H-7.5z"/></g></mask><mask id="n"><g filter="url(#a)"><path fill-opacity=".118" d="M-7.5 -7.5H82.5V82.5H-7.5z"/></g></mask><mask id="q"><g filter="url(#a)"><path fill-opacity=".118" d="M-7.5 -7.5H82.5V82.5H-7.5z"/></g></mask><mask id="t"><g filter="url(#a)"><path fill-opacity=".118" d="M-7.5 -7.5H82.5V82.5H-7.5z"/></g></mask><mask id="w"><g filter="url(#a)"><path fill-opacity=".118" d="M-7.5 -7.5H82.5V82.5H-7.5z"/></g></mask><mask id="A"><g filter="url(#a)"><path fill-opacity=".2" d="M-7.5 -7.5H82.5V82.5H-7.5z"/></g></mask><mask id="D"><g filter="url(#a)"><path fill-opacity=".2" d="M-7.5 -7.5H82.5V82.5H-7.5z"/></g></mask><mask id="G"><g filter="url(#a)"><path fill-opacity=".028" d="M-7.5 -7.5H82.5V82.5H-7.5z"/></g></mask><mask id="J"><g filter="url(#a)"><path fill-opacity=".028" d="M-7.5 -7.5H82.5V82.5H-7.5z"/></g></mask><mask id="M"><g filter="url(#a)"><path fill-opacity=".2" d="M-7.5 -7.5H82.5V82.5H-7.5z"/></g></mask><mask id="P"><g filter="url(#a)"><path fill-opacity=".2" d="M-7.5 -7.5H82.5V82.5H-7.5z"/></g></mask><mask id="S"><g filter="url(#a)"><path fill-opacity=".2" d="M-7.5 -7.5H82.5V82.5H-7.5z"/></g></mask><mask id="V"><g filter="url(#a)"><path fill-opacity=".02" d="M-7.5 -7.5H82.5V82.5H-7.5z"/></g></mask><mask id="Z"><g filter="url(#a)"><path fill-opacity=".118" d="M-7.5 -7.5H82.5V82.5H-7.5z"/></g></mask><filter x="0%" y="0%" width="100%" xmlns:xlink="http://www.w3.org/1999/xlink" xlink:type="simple" xlink:actuate="onLoad" height="100%" id="a" xlink:show="other"><feColorMatrix values="0 0 0 0 1 0 0 0 0 1 0 0 0 0 1 0 0 0 1 0" color-interpolation-filters="sRGB"/></filter></defs><path fill="#E5AC23" d="M 63.144531 66.0625 L 11.566406 66.0625 C 10.464844 66.0625 9.570312 65.164062 9.570312 64.054688 L 9.570312 28.429688 C 9.570312 27.320312 10.464844 26.421875 11.566406 26.421875 L 63.144531 26.421875 C 64.25 26.421875 65.144531 27.320312 65.144531 28.429688 L 65.144531 64.054688 C 65.144531 65.164062 64.25 66.0625 63.144531 66.0625 Z M 63.144531 66.0625"/><g mask="url(#b)"><g><g clip-path="url(#c)" transform="translate(9 26)"><g clip-path="url(#d)"><path fill="#341B07" d="M 0.570312 0.421875 L 56.144531 0.421875 L 56.144531 40.0625 L 0.570312 40.0625 Z M 0.570312 0.421875"/></g></g></g></g><g mask="url(#e)"><g><g clip-path="url(#f)" transform="translate(9 26)"><g clip-path="url(#g)"><path fill="#341B07" d="M 0.570312 0.421875 L 56.144531 0.421875 L 56.144531 4.585938 L 0.570312 4.585938 Z M 0.570312 0.421875"/></g></g></g></g><path fill="#341B07" d="M 66.15625 67.078125 L 8.554688 67.078125 L 8.554688 25.40625 L 66.15625 25.40625 Z M 10.550781 65.074219 L 64.128906 65.074219 L 64.128906 27.441406 L 10.550781 27.441406 Z M 10.550781 65.074219"/><path fill="#E5AC23" d="M 70.121094 26.421875 L 4.621094 26.421875 L 4.621094 9.597656 C 4.621094 4.898438 8.40625 1.09375 13.085938 1.09375 L 61.65625 1.09375 C 66.335938 1.09375 70.121094 4.898438 70.121094 9.597656 Z M 70.121094 26.421875"/><g mask="url(#h)"><g><g clip-path="url(#i)" transform="translate(5 1)"><g clip-path="url(#j)"><path fill="#CDCAB4" d="M 56.625 0.933594 L 8.058594 0.933594 C 3.882812 0.933594 0.453125 4.375 0.453125 8.566406 L 0.453125 23.386719 L 1.496094 23.386719 L 1.496094 8.566406 C 1.496094 4.914062 4.449219 1.949219 8.085938 1.949219 L 56.65625 1.949219 C 60.292969 1.949219 63.242188 4.914062 63.242188 8.566406 L 63.242188 23.386719 L 64.285156 23.386719 L 64.285156 8.566406 C 64.257812 4.375 60.828125 0.933594 56.625 0.933594 Z M 56.625 0.933594"/></g></g></g></g><g mask="url(#k)"><g><g clip-path="url(#l)" transform="translate(51 9)"><g clip-path="url(#m)"><path fill="#341B07" d="M 13.097656 6.253906 C 13.097656 6.636719 13.0625 7.015625 12.984375 7.386719 C 12.90625 7.761719 12.792969 8.125 12.640625 8.476562 C 12.488281 8.832031 12.304688 9.164062 12.085938 9.480469 C 11.863281 9.800781 11.613281 10.09375 11.335938 10.363281 C 11.054688 10.632812 10.75 10.871094 10.421875 11.085938 C 10.09375 11.296875 9.746094 11.476562 9.382812 11.621094 C 9.015625 11.765625 8.640625 11.878906 8.25 11.953125 C 7.863281 12.027344 7.472656 12.0625 7.078125 12.0625 C 6.679688 12.0625 6.289062 12.027344 5.902344 11.953125 C 5.515625 11.878906 5.136719 11.765625 4.773438 11.621094 C 4.40625 11.476562 4.058594 11.296875 3.730469 11.085938 C 3.402344 10.871094 3.097656 10.632812 2.816406 10.363281 C 2.539062 10.09375 2.289062 9.800781 2.070312 9.480469 C 1.847656 9.164062 1.664062 8.832031 1.511719 8.476562 C 1.363281 8.125 1.246094 7.761719 1.171875 7.386719 C 1.09375 7.015625 1.054688 6.636719 1.054688 6.253906 C 1.054688 5.875 1.09375 5.496094 1.171875 5.121094 C 1.246094 4.75 1.363281 4.386719 1.511719 4.03125 C 1.664062 3.679688 1.847656 3.347656 2.070312 3.027344 C 2.289062 2.710938 2.539062 2.417969 2.816406 2.148438 C 3.097656 1.878906 3.402344 1.636719 3.730469 1.425781 C 4.058594 1.214844 4.40625 1.035156 4.773438 0.890625 C 5.136719 0.742188 5.515625 0.632812 5.902344 0.558594 C 6.289062 0.484375 6.679688 0.449219 7.078125 0.449219 C 7.472656 0.449219 7.863281 0.484375 8.25 0.558594 C 8.640625 0.632812 9.015625 0.742188 9.382812 0.890625 C 9.746094 1.035156 10.09375 1.214844 10.421875 1.425781 C 10.75 1.636719 11.054688 1.878906 11.335938 2.148438 C 11.613281 2.417969 11.863281 2.710938 12.085938 3.027344 C 12.304688 3.347656 12.488281 3.679688 12.640625 4.03125 C 12.792969 4.386719 12.90625 4.75 12.984375 5.121094 C 13.0625 5.496094 13.097656 5.875 13.097656 6.253906 Z M 13.097656 6.253906"/></g></g></g></g><path fill="#CDCAB4" d="M 63.621094 15.644531 C 63.621094 15.976562 63.589844 16.300781 63.527344 16.625 C 63.460938 16.949219 63.367188 17.265625 63.242188 17.570312 C 63.113281 17.875 62.960938 18.164062 62.777344 18.4375 C 62.59375 18.714844 62.386719 18.96875 62.15625 19.203125 C 61.921875 19.433594 61.667969 19.644531 61.394531 19.828125 C 61.121094 20.011719 60.835938 20.164062 60.53125 20.292969 C 60.226562 20.417969 59.914062 20.511719 59.589844 20.578125 C 59.269531 20.640625 58.941406 20.675781 58.613281 20.675781 C 58.285156 20.675781 57.957031 20.640625 57.636719 20.578125 C 57.3125 20.511719 57 20.417969 56.695312 20.292969 C 56.394531 20.164062 56.105469 20.011719 55.832031 19.828125 C 55.558594 19.644531 55.304688 19.433594 55.070312 19.203125 C 54.839844 18.96875 54.632812 18.714844 54.449219 18.4375 C 54.265625 18.164062 54.113281 17.875 53.984375 17.570312 C 53.859375 17.265625 53.765625 16.949219 53.699219 16.625 C 53.636719 16.300781 53.605469 15.976562 53.605469 15.644531 C 53.605469 15.316406 53.636719 14.988281 53.699219 14.664062 C 53.765625 14.339844 53.859375 14.023438 53.984375 13.71875 C 54.113281 13.414062 54.265625 13.125 54.449219 12.851562 C 54.632812 12.574219 54.839844 12.320312 55.070312 12.089844 C 55.304688 11.855469 55.558594 11.644531 55.832031 11.460938 C 56.105469 11.277344 56.394531 11.125 56.695312 10.996094 C 57 10.871094 57.3125 10.777344 57.636719 10.710938 C 57.957031 10.648438 58.285156 10.613281 58.613281 10.613281 C 58.941406 10.613281 59.269531 10.648438 59.589844 10.710938 C 59.914062 10.777344 60.226562 10.871094 60.53125 10.996094 C 60.835938 11.125 61.121094 11.277344 61.394531 11.460938 C 61.667969 11.644531 61.921875 11.855469 62.15625 12.089844 C 62.386719 12.320312 62.59375 12.574219 62.777344 12.851562 C 62.960938 13.125 63.113281 13.414062 63.242188 13.71875 C 63.367188 14.023438 63.460938 14.339844 63.527344 14.664062 C 63.589844 14.988281 63.621094 15.316406 63.621094 15.644531 Z M 63.621094 15.644531"/><path fill="#341B07" d="M 61.566406 14.777344 C 61.386719 14.777344 61.175781 14.65625 61.089844 14.476562 C 60.640625 13.519531 59.65625 12.921875 58.613281 12.921875 C 57.570312 12.921875 56.585938 13.550781 56.140625 14.476562 C 56.019531 14.746094 55.722656 14.835938 55.453125 14.714844 C 55.183594 14.597656 55.09375 14.296875 55.214844 14.027344 C 55.839844 12.710938 57.152344 11.871094 58.613281 11.871094 C 60.074219 11.871094 61.386719 12.710938 62.011719 14.027344 C 62.132812 14.296875 62.011719 14.597656 61.773438 14.714844 C 61.714844 14.746094 61.625 14.777344 61.566406 14.777344 Z M 61.566406 14.777344"/><path fill="#341B07" d="M 58.734375 13.757812 L 59.328125 15.613281 C 59.449219 16.003906 59.238281 16.421875 58.851562 16.574219 C 58.464844 16.691406 58.046875 16.484375 57.898438 16.09375 C 57.839844 15.945312 57.839844 15.765625 57.898438 15.613281 L 58.496094 13.757812 C 58.523438 13.699219 58.582031 13.667969 58.644531 13.699219 C 58.703125 13.699219 58.703125 13.730469 58.734375 13.757812 Z M 58.734375 13.757812"/><path fill="#341B07" d="M 58.941406 18.789062 C 58.941406 18.878906 58.910156 18.957031 58.84375 19.019531 C 58.78125 19.085938 58.703125 19.117188 58.613281 19.117188 C 58.523438 19.117188 58.445312 19.085938 58.382812 19.019531 C 58.316406 18.957031 58.285156 18.878906 58.285156 18.789062 C 58.285156 18.699219 58.316406 18.621094 58.382812 18.554688 C 58.445312 18.492188 58.523438 18.457031 58.613281 18.457031 C 58.703125 18.457031 58.78125 18.492188 58.84375 18.554688 C 58.910156 18.621094 58.941406 18.699219 58.941406 18.789062 Z M 58.941406 18.789062"/><path fill="#341B07" d="M 60.164062 18.789062 C 60.164062 18.878906 60.132812 18.957031 60.066406 19.019531 C 60.003906 19.085938 59.925781 19.117188 59.835938 19.117188 C 59.746094 19.117188 59.667969 19.085938 59.605469 19.019531 C 59.539062 18.957031 59.507812 18.878906 59.507812 18.789062 C 59.507812 18.699219 59.539062 18.621094 59.605469 18.554688 C 59.667969 18.492188 59.746094 18.457031 59.835938 18.457031 C 59.925781 18.457031 60.003906 18.492188 60.066406 18.554688 C 60.132812 18.621094 60.164062 18.699219 60.164062 18.789062 Z M 60.164062 18.789062"/><path fill="#341B07" d="M 57.71875 18.789062 C 57.71875 18.878906 57.6875 18.957031 57.621094 19.019531 C 57.558594 19.085938 57.480469 19.117188 57.390625 19.117188 C 57.300781 19.117188 57.222656 19.085938 57.160156 19.019531 C 57.09375 18.957031 57.0625 18.878906 57.0625 18.789062 C 57.0625 18.699219 57.09375 18.621094 57.160156 18.554688 C 57.222656 18.492188 57.300781 18.457031 57.390625 18.457031 C 57.480469 18.457031 57.558594 18.492188 57.621094 18.554688 C 57.6875 18.621094 57.71875 18.699219 57.71875 18.789062 Z M 57.71875 18.789062"/><g mask="url(#n)"><g><g clip-path="url(#o)" transform="translate(53 10)"><g clip-path="url(#p)"><path fill="#341B07" d="M 5.613281 0.613281 C 2.839844 0.613281 0.605469 2.859375 0.605469 5.644531 C 0.605469 8.429688 2.839844 10.675781 5.613281 10.675781 C 8.386719 10.675781 10.621094 8.429688 10.621094 5.644531 C 10.621094 2.859375 8.386719 0.613281 5.613281 0.613281 Z M 6.179688 9.957031 C 4.035156 9.957031 2.304688 8.21875 2.304688 6.0625 C 2.304688 3.910156 4.035156 2.171875 6.179688 2.171875 C 8.328125 2.171875 10.054688 3.910156 10.054688 6.0625 C 10.054688 8.191406 8.328125 9.957031 6.179688 9.957031 Z M 6.179688 9.957031"/></g></g></g></g><path fill="#341B07" d="M 58.613281 21.394531 C 55.453125 21.394531 52.890625 18.816406 52.890625 15.644531 C 52.890625 12.472656 55.453125 9.898438 58.613281 9.898438 C 61.773438 9.898438 64.335938 12.472656 64.335938 15.644531 C 64.335938 18.816406 61.773438 21.394531 58.613281 21.394531 Z M 58.613281 11.332031 C 56.257812 11.332031 54.320312 13.28125 54.320312 15.644531 C 54.320312 18.011719 56.257812 19.957031 58.613281 19.957031 C 60.96875 19.957031 62.90625 18.011719 62.90625 15.644531 C 62.90625 13.28125 61 11.332031 58.613281 11.332031 Z M 58.613281 11.332031"/><path fill="#341B07" d="M 22.777344 13.25 C 22.777344 13.503906 22.726562 13.75 22.632812 13.984375 C 22.535156 14.21875 22.398438 14.425781 22.21875 14.605469 C 22.039062 14.785156 21.832031 14.921875 21.597656 15.019531 C 21.363281 15.117188 21.121094 15.164062 20.867188 15.164062 C 20.617188 15.164062 20.371094 15.117188 20.136719 15.019531 C 19.90625 14.921875 19.699219 14.785156 19.519531 14.605469 C 19.339844 14.425781 19.203125 14.21875 19.105469 13.984375 C 19.007812 13.75 18.960938 13.503906 18.960938 13.25 C 18.960938 12.996094 19.007812 12.75 19.105469 12.515625 C 19.203125 12.28125 19.339844 12.074219 19.519531 11.894531 C 19.699219 11.714844 19.90625 11.578125 20.136719 11.480469 C 20.371094 11.382812 20.617188 11.332031 20.867188 11.332031 C 21.121094 11.332031 21.363281 11.382812 21.597656 11.480469 C 21.832031 11.578125 22.039062 11.714844 22.21875 11.894531 C 22.398438 12.074219 22.535156 12.28125 22.632812 12.515625 C 22.726562 12.75 22.777344 12.996094 22.777344 13.25 Z M 22.777344 13.25"/><path fill="#341B07" d="M 20.867188 15.734375 C 19.496094 15.734375 18.394531 14.625 18.394531 13.25 C 18.394531 11.871094 19.496094 10.765625 20.867188 10.765625 C 22.238281 10.765625 23.34375 11.871094 23.34375 13.25 C 23.34375 14.625 22.238281 15.734375 20.867188 15.734375 Z M 20.867188 11.902344 C 20.121094 11.902344 19.527344 12.5 19.527344 13.25 C 19.527344 14 20.121094 14.597656 20.867188 14.597656 C 21.613281 14.597656 22.210938 14 22.210938 13.25 C 22.210938 12.5 21.613281 11.902344 20.867188 11.902344 Z M 20.867188 11.902344"/><path fill="#341B07" d="M 19.675781 19.058594 L 22.03125 19.058594 L 22.03125 21.421875 L 19.675781 21.421875 Z M 19.675781 19.058594"/><g mask="url(#q)"><g><g clip-path="url(#r)" transform="translate(18 13)"><g clip-path="url(#s)"><path fill="#341B07" d="M 4.777344 0.25 C 4.777344 1.296875 3.910156 2.164062 2.867188 2.164062 C 1.824219 2.164062 0.960938 1.296875 0.960938 0.25"/></g></g></g></g><path fill="#E5AC23" d="M 15.769531 13.25 C 15.769531 13.503906 15.722656 13.75 15.625 13.984375 C 15.527344 14.21875 15.390625 14.425781 15.210938 14.605469 C 15.03125 14.785156 14.824219 14.921875 14.59375 15.019531 C 14.359375 15.117188 14.113281 15.164062 13.863281 15.164062 C 13.609375 15.164062 13.367188 15.117188 13.132812 15.019531 C 12.898438 14.921875 12.691406 14.785156 12.511719 14.605469 C 12.332031 14.425781 12.195312 14.21875 12.097656 13.984375 C 12.003906 13.75 11.953125 13.503906 11.953125 13.25 C 11.953125 12.996094 12.003906 12.75 12.097656 12.515625 C 12.195312 12.28125 12.332031 12.074219 12.511719 11.894531 C 12.691406 11.714844 12.898438 11.578125 13.132812 11.480469 C 13.367188 11.382812 13.609375 11.332031 13.863281 11.332031 C 14.113281 11.332031 14.359375 11.382812 14.59375 11.480469 C 14.824219 11.578125 15.03125 11.714844 15.210938 11.894531 C 15.390625 12.074219 15.527344 12.28125 15.625 12.515625 C 15.722656 12.75 15.769531 12.996094 15.769531 13.25 Z M 15.769531 13.25"/><path fill="#341B07" d="M 13.863281 15.734375 C 12.492188 15.734375 11.386719 14.625 11.386719 13.25 C 11.386719 11.871094 12.492188 10.765625 13.863281 10.765625 C 15.234375 10.765625 16.335938 11.871094 16.335938 13.25 C 16.335938 14.625 15.234375 15.734375 13.863281 15.734375 Z M 13.863281 11.902344 C 13.117188 11.902344 12.519531 12.5 12.519531 13.25 C 12.519531 14 13.117188 14.597656 13.863281 14.597656 C 14.605469 14.597656 15.203125 14 15.203125 13.25 C 15.203125 12.5 14.578125 11.902344 13.863281 11.902344 Z M 13.863281 11.902344"/><path fill="#341B07" d="M 12.667969 19.058594 L 15.023438 19.058594 L 15.023438 21.421875 L 12.667969 21.421875 Z M 12.667969 19.058594"/><g mask="url(#t)"><g><g clip-path="url(#u)" transform="translate(11 13)"><g clip-path="url(#v)"><path fill="#341B07" d="M 4.769531 0.25 C 4.769531 1.296875 3.90625 2.164062 2.863281 2.164062 C 1.820312 2.164062 0.953125 1.296875 0.953125 0.25"/></g></g></g></g><path fill="#341B07" d="M 67.648438 23.21875 C 67.648438 23.425781 67.574219 23.601562 67.429688 23.75 C 67.285156 23.894531 67.109375 23.96875 66.902344 23.96875 C 66.695312 23.96875 66.519531 23.894531 66.375 23.75 C 66.230469 23.601562 66.15625 23.425781 66.15625 23.21875 C 66.15625 23.011719 66.230469 22.835938 66.375 22.691406 C 66.519531 22.542969 66.695312 22.472656 66.902344 22.472656 C 67.109375 22.472656 67.285156 22.542969 67.429688 22.691406 C 67.574219 22.835938 67.648438 23.011719 67.648438 23.21875 Z M 67.648438 23.21875"/><path fill="#341B07" d="M 67.648438 8.878906 C 67.648438 9.085938 67.574219 9.261719 67.429688 9.40625 C 67.285156 9.554688 67.109375 9.628906 66.902344 9.628906 C 66.695312 9.628906 66.519531 9.554688 66.375 9.40625 C 66.230469 9.261719 66.15625 9.085938 66.15625 8.878906 C 66.15625 8.671875 66.230469 8.496094 66.375 8.347656 C 66.519531 8.203125 66.695312 8.128906 66.902344 8.128906 C 67.109375 8.128906 67.285156 8.203125 67.429688 8.347656 C 67.574219 8.496094 67.648438 8.671875 67.648438 8.878906 Z M 67.648438 8.878906"/><path fill="#341B07" d="M 8.464844 23.21875 C 8.464844 23.425781 8.394531 23.601562 8.246094 23.75 C 8.101562 23.894531 7.925781 23.96875 7.71875 23.96875 C 7.515625 23.96875 7.339844 23.894531 7.191406 23.75 C 7.046875 23.601562 6.976562 23.425781 6.976562 23.21875 C 6.976562 23.011719 7.046875 22.835938 7.191406 22.691406 C 7.339844 22.542969 7.515625 22.472656 7.71875 22.472656 C 7.925781 22.472656 8.101562 22.542969 8.246094 22.691406 C 8.394531 22.835938 8.464844 23.011719 8.464844 23.21875 Z M 8.464844 23.21875"/><path fill="#341B07" d="M 8.464844 8.878906 C 8.464844 9.085938 8.394531 9.261719 8.246094 9.40625 C 8.101562 9.554688 7.925781 9.628906 7.71875 9.628906 C 7.515625 9.628906 7.339844 9.554688 7.191406 9.40625 C 7.046875 9.261719 6.976562 9.085938 6.976562 8.878906 C 6.976562 8.671875 7.046875 8.496094 7.191406 8.347656 C 7.339844 8.203125 7.515625 8.128906 7.71875 8.128906 C 7.925781 8.128906 8.101562 8.203125 8.246094 8.347656 C 8.394531 8.496094 8.464844 8.671875 8.464844 8.878906 Z M 8.464844 8.878906"/><g mask="url(#w)"><g><g clip-path="url(#x)" transform="translate(5 24)"><g clip-path="url(#y)"><path fill="#341B07" d="M 0.304688 0.386719 L 65.121094 0.386719 L 65.121094 2.421875 L 0.304688 2.421875 Z M 0.304688 0.386719"/></g></g></g></g><g clip-path="url(#z)"><path fill="#341B07" d="M 71.105469 27.441406 L 3.605469 27.441406 L 3.605469 9.597656 C 3.605469 4.328125 7.839844 0.078125 13.085938 0.078125 L 61.65625 0.078125 C 66.871094 0.078125 71.136719 4.328125 71.136719 9.597656 L 71.136719 27.441406 Z M 5.601562 25.40625 L 69.109375 25.40625 L 69.109375 9.597656 C 69.109375 5.464844 65.769531 2.113281 61.65625 2.113281 L 13.085938 2.113281 C 8.972656 2.113281 5.632812 5.464844 5.632812 9.597656 L 5.632812 25.40625 Z M 5.601562 25.40625"/></g><path fill="#341B07" d="M 5.304688 5.617188 L 69.199219 5.617188 L 69.199219 6.753906 L 5.304688 6.753906 Z M 5.304688 5.617188"/><g mask="url(#A)"><g><g clip-path="url(#B)" transform="translate(9 62)"><g clip-path="url(#C)"><path fill="#341B07" d="M 0.570312 1.1875 L 56.144531 1.1875 L 56.144531 4.0625 L 0.570312 4.0625 Z M 0.570312 1.1875"/></g></g></g></g><path fill="#E5AC23" d="M 70.121094 73.90625 L 4.621094 73.90625 L 4.621094 68.667969 C 4.621094 67.230469 5.78125 66.03125 7.242188 66.03125 L 67.527344 66.03125 C 68.960938 66.03125 70.152344 67.199219 70.152344 68.667969 L 70.152344 73.90625 Z M 70.121094 73.90625"/><path fill="#E5AC23" d="M 44.660156 34.777344 L 30.050781 34.777344 C 29.128906 34.777344 28.382812 34.027344 28.382812 33.097656 L 28.382812 26.421875 L 46.328125 26.421875 L 46.328125 33.097656 C 46.328125 34.027344 45.585938 34.777344 44.660156 34.777344 Z M 44.660156 34.777344"/><g mask="url(#D)"><g><g clip-path="url(#E)" transform="translate(28 26)"><g clip-path="url(#F)"><path fill="#341B07" d="M 0.828125 1.171875 L 18.003906 1.171875 L 18.003906 2.519531 L 0.828125 2.519531 Z M 0.828125 1.171875"/></g></g></g></g><path fill="#E5AC23" d="M 30.976562 34.777344 L 43.765625 34.777344 L 43.765625 40.941406 L 30.976562 40.941406 Z M 30.976562 34.777344"/><g mask="url(#G)"><g><g clip-path="url(#H)" transform="translate(44 28)"><g clip-path="url(#I)"><path fill="#CDCAB4" d="M 0.808594 0.519531 L 1.972656 0.519531 L 1.972656 6.386719 L 0.808594 6.386719 Z M 0.808594 0.519531"/></g></g></g></g><g mask="url(#J)"><g><g clip-path="url(#K)" transform="translate(42 34)"><g clip-path="url(#L)"><path fill="#CDCAB4" d="M 0.335938 0.777344 L 1.496094 0.777344 L 1.496094 6.644531 L 0.335938 6.644531 Z M 0.335938 0.777344"/></g></g></g></g><path fill="#341B07" d="M 44.660156 35.492188 L 30.050781 35.492188 C 28.738281 35.492188 27.667969 34.417969 27.667969 33.097656 L 27.667969 25.703125 L 47.046875 25.703125 L 47.046875 33.097656 C 47.046875 34.417969 45.972656 35.492188 44.660156 35.492188 Z M 29.097656 27.140625 L 29.097656 33.097656 C 29.097656 33.636719 29.515625 34.058594 30.050781 34.058594 L 44.660156 34.058594 C 45.195312 34.058594 45.613281 33.636719 45.613281 33.097656 L 45.613281 27.140625 Z M 29.097656 27.140625"/><g mask="url(#M)"><g><g clip-path="url(#N)" transform="translate(30 38)"><g clip-path="url(#O)"><path fill="#341B07" d="M 1.214844 0.667969 L 12.335938 0.667969 L 12.335938 2.644531 L 1.214844 2.644531 Z M 1.214844 0.667969"/></g></g></g></g><path fill="#341B07" d="M 44.453125 41.660156 L 30.261719 41.660156 L 30.261719 34.058594 L 44.453125 34.058594 Z M 31.691406 40.222656 L 43.050781 40.222656 L 43.050781 35.492188 L 31.691406 35.492188 Z M 31.691406 40.222656"/><path fill="#341B07" d="M 30.976562 37.710938 L 43.765625 37.710938 L 43.765625 38.847656 L 30.976562 38.847656 Z M 30.976562 37.710938"/><path fill="#E5AC23" d="M 55.542969 66.0625 L 19.167969 66.0625 L 19.167969 64.296875 C 19.167969 62.796875 20.390625 61.570312 21.882812 61.570312 L 52.828125 61.570312 C 54.320312 61.570312 55.542969 62.796875 55.542969 64.296875 Z M 55.542969 66.0625"/><path fill="#341B07" d="M 43.734375 37.320312 L 50.027344 37.320312 L 50.027344 39.265625 L 43.734375 39.265625 Z M 43.734375 37.320312"/><path fill="#341B07" d="M 50.625 39.835938 L 43.199219 39.835938 L 43.199219 36.722656 L 50.625 36.722656 Z M 44.300781 38.699219 L 49.460938 38.699219 L 49.460938 37.890625 L 44.300781 37.890625 Z M 44.300781 38.699219"/><g mask="url(#P)"><g><g clip-path="url(#Q)" transform="translate(5 71)"><g clip-path="url(#R)"><path fill="#341B07" d="M 0.304688 0.539062 L 65.121094 0.539062 L 65.121094 2.933594 L 0.304688 2.933594 Z M 0.304688 0.539062"/></g></g></g></g><g mask="url(#S)"><g><g clip-path="url(#T)" transform="translate(5 65)"><g clip-path="url(#U)"><path fill="#CDCAB4" d="M 0.304688 1.0625 L 65.121094 1.0625 L 65.121094 3.246094 L 0.304688 3.246094 Z M 0.304688 1.0625"/></g></g></g></g><g mask="url(#V)"><g><g clip-path="url(#W)" transform="translate(44 61)"><g clip-path="url(#X)"><path fill="#CDCAB4" d="M 11.542969 5.0625 L 0.808594 5.0625 L 0.808594 0.570312 L 8.859375 0.570312 C 10.351562 0.570312 11.542969 1.769531 11.542969 3.265625 Z M 11.542969 5.0625"/></g></g></g></g><path fill="#341B07" d="M 56.40625 66.929688 L 18.304688 66.929688 L 18.304688 64.296875 C 18.304688 62.320312 19.914062 60.703125 21.882812 60.703125 L 52.828125 60.703125 C 54.796875 60.703125 56.40625 62.320312 56.40625 64.296875 Z M 20.035156 65.191406 L 54.679688 65.191406 L 54.679688 64.265625 C 54.679688 63.246094 53.84375 62.410156 52.828125 62.410156 L 21.882812 62.410156 C 20.867188 62.410156 20.035156 63.246094 20.035156 64.265625 Z M 20.035156 65.191406"/><g clip-path="url(#Y)"><path fill="#341B07" d="M 71.105469 74.921875 L 3.605469 74.921875 L 3.605469 68.695312 C 3.605469 66.691406 5.214844 65.074219 7.214844 65.074219 L 67.5 65.074219 C 69.496094 65.074219 71.105469 66.691406 71.105469 68.695312 Z M 5.601562 72.917969 L 69.109375 72.917969 L 69.109375 68.695312 C 69.109375 67.796875 68.394531 67.078125 67.5 67.078125 L 7.214844 67.078125 C 6.320312 67.078125 5.601562 67.796875 5.601562 68.695312 Z M 5.601562 72.917969"/></g><path fill="#E5AC23" d="M 60.730469 40.3125 L 50.058594 40.3125 L 50.058594 36.300781 L 60.730469 36.300781 C 61.832031 36.300781 62.726562 37.199219 62.726562 38.308594 C 62.726562 39.386719 61.832031 40.3125 60.730469 40.3125 Z M 60.730469 40.3125"/><path fill="#341B07" d="M 60.730469 40.882812 L 49.492188 40.882812 L 49.492188 35.703125 L 60.730469 35.703125 C 62.160156 35.703125 63.292969 36.871094 63.292969 38.277344 C 63.292969 39.714844 62.132812 40.882812 60.730469 40.882812 Z M 50.625 39.714844 L 60.730469 39.714844 C 61.503906 39.714844 62.160156 39.058594 62.160156 38.277344 C 62.160156 37.5 61.503906 36.839844 60.730469 36.839844 L 50.625 36.839844 Z M 50.625 39.714844"/><path fill="#341B07" d="M 52.472656 36.273438 L 53.335938 36.273438 L 53.335938 40.222656 L 52.472656 40.222656 Z M 52.472656 36.273438"/><path fill="#341B07" d="M 10.195312 69.714844 C 10.195312 69.886719 10.132812 70.035156 10.011719 70.160156 C 9.890625 70.28125 9.742188 70.34375 9.570312 70.34375 C 9.394531 70.34375 9.25 70.28125 9.125 70.160156 C 9.003906 70.035156 8.941406 69.886719 8.941406 69.714844 C 8.941406 69.539062 9.003906 69.390625 9.125 69.269531 C 9.25 69.148438 9.394531 69.085938 9.570312 69.085938 C 9.742188 69.085938 9.890625 69.148438 10.011719 69.269531 C 10.132812 69.390625 10.195312 69.539062 10.195312 69.714844 Z M 10.195312 69.714844"/><path fill="#341B07" d="M 66.277344 69.714844 C 66.277344 69.871094 66.21875 70.003906 66.109375 70.117188 C 66 70.226562 65.867188 70.28125 65.710938 70.28125 C 65.554688 70.28125 65.417969 70.226562 65.308594 70.117188 C 65.199219 70.003906 65.144531 69.871094 65.144531 69.714844 C 65.144531 69.558594 65.199219 69.421875 65.308594 69.3125 C 65.417969 69.199219 65.554688 69.144531 65.710938 69.144531 C 65.867188 69.144531 66 69.199219 66.109375 69.3125 C 66.21875 69.421875 66.277344 69.558594 66.277344 69.714844 Z M 66.277344 69.714844"/><path fill="#CDCAB4" d="M 39.832031 61.269531 L 34.851562 61.269531 C 30.378906 61.269531 26.773438 57.648438 26.773438 53.15625 L 26.773438 46.722656 L 47.910156 46.722656 L 47.910156 53.15625 C 47.941406 57.648438 44.300781 61.269531 39.832031 61.269531 Z M 39.832031 61.269531"/><path fill="#CDCAB4" d="M 49.90625 57.320312 L 47.460938 57.320312 L 47.460938 53.308594 L 49.90625 53.308594 C 50.355469 53.308594 50.742188 53.128906 51.039062 52.828125 C 51.367188 52.5 51.519531 52.109375 51.519531 51.660156 C 51.519531 50.761719 50.800781 50.042969 49.90625 50.042969 L 47.703125 50.042969 L 47.703125 46.03125 L 49.90625 46.03125 C 53.007812 46.03125 55.542969 48.578125 55.542969 51.691406 C 55.542969 53.1875 54.945312 54.625 53.902344 55.671875 C 52.828125 56.71875 51.429688 57.320312 49.90625 57.320312 Z M 49.90625 57.320312"/><path fill="#341B07" d="M 49.90625 47.441406 C 52.234375 47.441406 54.113281 49.324219 54.113281 51.660156 C 54.113281 52.796875 53.664062 53.847656 52.890625 54.65625 C 52.113281 55.464844 51.039062 55.882812 49.9375 55.882812 L 48.921875 55.882812 L 48.921875 54.746094 L 49.9375 54.746094 C 50.742188 54.746094 51.519531 54.414062 52.085938 53.847656 C 52.652344 53.246094 52.980469 52.5 52.980469 51.660156 C 52.980469 49.984375 51.605469 48.605469 49.9375 48.605469 L 49.164062 48.605469 L 49.164062 47.46875 L 49.90625 47.46875 M 49.90625 46.003906 L 47.703125 46.003906 L 47.703125 50.015625 L 49.90625 50.015625 C 50.800781 50.015625 51.519531 50.734375 51.519531 51.632812 C 51.519531 52.050781 51.339844 52.46875 51.039062 52.796875 C 50.742188 53.097656 50.324219 53.277344 49.90625 53.277344 L 47.460938 53.277344 L 47.460938 57.289062 L 49.90625 57.289062 C 51.429688 57.289062 52.828125 56.691406 53.871094 55.644531 C 54.945312 54.566406 55.511719 53.15625 55.511719 51.660156 C 55.542969 48.546875 53.007812 46.003906 49.90625 46.003906 Z M 49.90625 46.003906"/><g mask="url(#Z)"><g><g clip-path="url(#aa)" transform="translate(39 46)"><g clip-path="url(#ab)"><path fill="#CDCAB4" d="M 1.097656 0.722656 L 3.8125 0.722656 L 3.8125 14.703125 L 1.097656 14.703125 Z M 1.097656 0.722656"/></g></g></g></g><path fill="#341B07" d="M 26.800781 48.996094 L 48.179688 48.996094 L 48.179688 49.863281 L 26.800781 49.863281 Z M 26.800781 48.996094"/><path fill="#341B07" d="M 39.832031 61.988281 L 34.851562 61.988281 C 29.992188 61.988281 26.054688 58.039062 26.054688 53.15625 L 26.054688 46.003906 L 48.625 46.003906 L 48.625 53.15625 C 48.65625 58.039062 44.691406 61.988281 39.832031 61.988281 Z M 27.515625 47.441406 L 27.515625 53.15625 C 27.515625 57.230469 30.828125 60.554688 34.882812 60.554688 L 39.859375 60.554688 C 43.914062 60.554688 47.222656 57.230469 47.222656 53.15625 L 47.222656 47.441406 Z M 27.515625 47.441406"/><path fill="#341B07" d="M 36.671875 6.214844 L 37.804688 6.214844 L 37.804688 26.125 L 36.671875 26.125 Z M 36.671875 6.214844"/></svg>